<svg xmlns="http://www.w3.org/2000/svg">
    <symbol id="phone" viewBox="0 0 24 24">
		<path fill-rule="evenodd" clip-rule="evenodd" d="M11.5071 12.4973C15.7061 16.6951 16.6587 11.8387 19.3323 14.5103C21.9098 17.0871 23.3912 17.6034 20.1255 20.8681C19.7165 21.1969 17.1175 25.1519 7.98379 16.0207C-1.15103 6.88842 2.80167 4.28678 3.13049 3.87784C6.40407 0.604048 6.91143 2.09409 9.48894 4.67087C12.1625 7.34368 7.30806 8.29938 11.5071 12.4973Z" stroke-linecap="round" stroke-linejoin="round"/>
	</symbol>
  <symbol id="tg" viewBox="0 0 22 19">
    <path d="M0.388566 9.11039L5.45781 10.9871L7.41993 17.2463C7.54549 17.6472 8.03967 17.7954 8.3677 17.5294L11.1934 15.2444C11.4895 15.005 11.9115 14.9931 12.221 15.216L17.3175 18.8863C17.6684 19.1393 18.1656 18.9485 18.2536 18.5279L21.987 0.714282C22.0831 0.254862 21.628 -0.128436 21.187 0.0407723L0.382636 8.00159C-0.130755 8.19799 -0.126286 8.91898 0.388566 9.11039Z" fill="#37AEE2"/>
    <path opacity="0.24" d="M7.10307 9.98754L17.0103 3.93498C17.1883 3.82651 17.3715 4.06532 17.2186 4.20602L9.0423 11.7449C8.75492 12.0103 8.56951 12.3654 8.517 12.7509L8.23848 14.7983C8.20161 15.0716 7.81446 15.0987 7.73841 14.8342L6.66724 11.1007C6.54456 10.6749 6.72336 10.22 7.10307 9.98754Z" fill="#2F2F2E"/>
	</symbol>
  <symbol id="wa" viewBox="0 0 20 20">
    <path d="M10.0419 19.8281H10.0377C8.37111 19.8276 6.73348 19.4114 5.27898 18.6218L0 20L1.41274 14.8645C0.541294 13.3615 0.0827425 11.6566 0.0834898 9.90989C0.0856743 4.44562 4.55292 0 10.0418 0C12.7057 0.00114422 15.206 1.03324 17.0861 2.90653C18.9662 4.77973 20.001 7.26967 20 9.91771C19.9978 15.3807 15.5323 19.8259 10.0419 19.8281Z" fill="#25D366"/>
    <path d="M15.87 12.4287C15.8029 12.3182 15.624 12.2519 15.3556 12.1192C15.0872 11.9865 13.7676 11.3455 13.5215 11.2569C13.2756 11.1685 13.0966 11.1243 12.9177 11.3896C12.7388 11.6548 12.2244 12.2519 12.0678 12.4287C11.9112 12.6056 11.7546 12.6278 11.4863 12.4951C11.2179 12.3624 10.3531 12.0826 9.32785 11.1797C8.52993 10.4769 7.99126 9.60906 7.83469 9.34374C7.67812 9.07841 7.818 8.93503 7.95237 8.80287C8.07313 8.68409 8.22079 8.49326 8.35499 8.33855C8.48918 8.18384 8.53391 8.07322 8.62338 7.89647C8.71284 7.71952 8.66812 7.56481 8.60101 7.43214C8.53391 7.29948 7.99713 5.99498 7.77347 5.46433C7.55558 4.94755 7.33431 5.01755 7.16957 5.00939C7.01319 5.00163 6.83406 5 6.65514 5C6.47622 5 6.18542 5.06633 5.9394 5.33166C5.69338 5.59699 5 6.23817 5 7.54256C5 8.84706 5.96175 10.1073 6.09597 10.2841C6.23016 10.4611 7.98859 13.1379 10.6811 14.2859C11.3215 14.5589 11.8214 14.722 12.2112 14.8441C12.8542 15.0459 13.4394 15.0174 13.9018 14.9491C14.4175 14.8731 15.4898 14.3081 15.7135 13.689C15.9371 13.0699 15.9371 12.5392 15.87 12.4287V12.4287Z" fill="white"/>
	</symbol>
	<symbol id="search" viewBox="0 0 24 24" fill="none">
		<circle cx="11.5" cy="11.5" r="9.5"/>
		<path d="M22.5 22.5L18 18.5" stroke-linecap="round"/>
	</symbol>
  <symbol id="sound-off" viewBox="0 0 15 15">
		<path d="M1.97377 8.70625C1.75506 8.3419 1.63953 7.92495 1.63953 7.5C1.63953 7.07505 1.75506 6.6581 1.97377 6.29375C2.04098 6.18157 2.13092 6.0847 2.2378 6.00935C2.34469 5.93401 2.46615 5.88185 2.59439 5.85625L3.65252 5.64437C3.71562 5.63188 3.77254 5.59813 3.81377 5.54875L5.10627 3.99687C5.84502 3.10937 6.21502 2.66625 6.54439 2.78562C6.87377 2.905 6.87502 3.4825 6.87502 4.6375V10.3637C6.87502 11.5181 6.87502 12.095 6.54502 12.215C6.21564 12.3337 5.84564 11.8906 5.10689 11.0037L3.81252 9.45125C3.77144 9.40199 3.71477 9.36825 3.65189 9.35562L2.59377 9.14375C2.46553 9.11814 2.34406 9.06599 2.23718 8.99065C2.13029 8.9153 2.04098 8.81843 1.97377 8.70625Z" stroke-width="0.625"/>
		<path d="M9.375 9.375L13.125 5.625M13.125 9.375L9.375 5.625" stroke-width="0.625" stroke-linecap="round"/>
	</symbol>
  <symbol id="sound-on" viewBox="0 0 15 15">
		<path d="M1.97377 8.70625C1.75506 8.3419 1.63953 7.92495 1.63953 7.5C1.63953 7.07505 1.75506 6.6581 1.97377 6.29375C2.04098 6.18157 2.13092 6.0847 2.2378 6.00935C2.34469 5.93401 2.46615 5.88185 2.59439 5.85625L3.65252 5.64437C3.71562 5.63188 3.77254 5.59813 3.81377 5.54875L5.10627 3.99687C5.84502 3.10937 6.21502 2.66625 6.54439 2.78562C6.87377 2.905 6.87502 3.4825 6.87502 4.6375V10.3637C6.87502 11.5181 6.87502 12.095 6.54502 12.215C6.21564 12.3337 5.84564 11.8906 5.10689 11.0037L3.81252 9.45125C3.77144 9.40199 3.71477 9.36825 3.65189 9.35562L2.59377 9.14375C2.46553 9.11814 2.34406 9.06599 2.23718 8.99065C2.13029 8.9153 2.04098 8.81843 1.97377 8.70625Z" stroke-width="0.625"/>
		<path d="M9.71002 5.28998C10.2932 5.8731 10.6222 6.66309 10.6253 7.48775C10.6285 8.31242 10.3056 9.10491 9.7269 9.69248M12.2856 3.96436C13.2187 4.89727 13.7451 6.16116 13.7503 7.48057C13.7554 8.79997 13.2389 10.0679 12.3131 11.0081" stroke-width="0.625" stroke-linecap="round"/>
	</symbol>
  <symbol id="download" viewBox="0 0 24 24">
		<path d="M12 15.577L8.461 12.039L9.169 11.319L11.5 13.65V5H12.5V13.65L14.83 11.32L15.539 12.039L12 15.577ZM5 19V14.962H6V18H18V14.962H19V19H5Z"/>
	</symbol>
  <symbol id="arrow" viewBox="0 0 20 20">
		<path d="M14.9841 5.78724L4.34308 16.4282" stroke-width="2" stroke-linecap="round" stroke-linejoin="round"/>
		<path d="M6.54969 5.13379L15.6564 5.11418L15.6376 14.2217" stroke-width="2" stroke-linecap="round" stroke-linejoin="round"/>
	</symbol>
  <symbol id="pinterest" viewBox="0 0 22 22">
		<path d="M0 11.0002C0 15.5045 2.70858 19.3741 6.58445 21.0754C6.55351 20.3073 6.57895 19.3852 6.77591 18.5494C6.98741 17.6565 8.1913 12.5555 8.1913 12.5555C8.1913 12.5555 7.83991 11.8531 7.83991 10.8151C7.83991 9.18491 8.7847 7.96744 9.96136 7.96744C10.9619 7.96744 11.4453 8.71896 11.4453 9.6189C11.4453 10.6247 10.8038 12.1292 10.4739 13.5227C10.1983 14.6896 11.059 15.6413 12.2101 15.6413C14.2942 15.6413 15.6979 12.9644 15.6979 9.79284C15.6979 7.38195 14.0742 5.57743 11.1207 5.57743C7.78396 5.57743 5.70522 8.06584 5.70522 10.8454C5.70522 11.8038 5.98778 12.4796 6.43036 13.0029C6.63386 13.2433 6.66213 13.34 6.58848 13.616C6.53572 13.8184 6.41455 14.3057 6.36436 14.4988C6.29114 14.7774 6.06538 14.877 5.81359 14.7741C4.27668 14.1467 3.56091 12.4636 3.56091 10.5716C3.56091 7.44683 6.19627 3.69995 11.4226 3.69995C15.6224 3.69995 18.3866 6.73905 18.3866 10.0013C18.3866 14.3165 15.9876 17.5403 12.4512 17.5403C11.2637 17.5403 10.1466 16.8983 9.76387 16.1691C9.76387 16.1691 9.12527 18.7036 8.99001 19.193C8.75677 20.0411 8.30027 20.8888 7.88287 21.5495C8.89501 21.8488 9.94498 22.0007 11.0004 22.0006C17.0748 22.0006 22.0001 17.0756 22.0001 11.0002C22.0001 4.92499 17.0748 0 11.0004 0C4.92542 0 0 4.92499 0 11.0002Z" fill="#CB1F27"/>
	</symbol>
  <symbol id="warning" viewBox="0 0 24 24">
		<path d="M12 2C17.523 2 22 6.477 22 12C22 17.523 17.523 22 12 22C6.477 22 2 17.523 2 12C2 6.477 6.477 2 12 2ZM12 15C11.7348 15 11.4804 15.1054 11.2929 15.2929C11.1054 15.4804 11 15.7348 11 16C11 16.2652 11.1054 16.5196 11.2929 16.7071C11.4804 16.8946 11.7348 17 12 17C12.2652 17 12.5196 16.8946 12.7071 16.7071C12.8946 16.5196 13 16.2652 13 16C13 15.7348 12.8946 15.4804 12.7071 15.2929C12.5196 15.1054 12.2652 15 12 15ZM12 6C11.7551 6.00003 11.5187 6.08996 11.3356 6.25272C11.1526 6.41547 11.0357 6.63975 11.007 6.883L11 7V13C11.0003 13.2549 11.0979 13.5 11.2728 13.6854C11.4478 13.8707 11.687 13.9822 11.9414 13.9972C12.1958 14.0121 12.4464 13.9293 12.6418 13.7657C12.8373 13.6021 12.9629 13.3701 12.993 13.117L13 13V7C13 6.73478 12.8946 6.48043 12.7071 6.29289C12.5196 6.10536 12.2652 6 12 6Z"/>
	</symbol>
  <symbol id="" viewBox="0 0 32 32">
		
	</symbol>
</svg>
